HIERARCHY
ROOT Hips
{
	OFFSET 0.00 0.00 0.00
	CHANNELS 6 Xposition Yposition Zposition Xrotation Yrotation Zrotation
	JOINT Spine
	{
		OFFSET 0.00000 5.19526 0.00000
		CHANNELS 3 Xrotation Yrotation Zrotation
		JOINT Head
		{
			OFFSET 0.00000 15.65388 0.00000
			CHANNELS 3 Xrotation Yrotation Zrotation
			End Site
			{
				OFFSET 0.00000 4.52755 0.00000
			}
		}
		JOINT LeftShoulder
		{
			OFFSET 0.00000 10.32977 0.00000
			CHANNELS 3 Xrotation Yrotation Zrotation
			JOINT LeftArm
			{
				OFFSET 6.99601 0.00000 0.00000
				CHANNELS 3 Xrotation Yrotation Zrotation
				JOINT LeftForeArm
				{
					OFFSET 10.20930 0.00000 0.00000
					CHANNELS 3 Yrotation Zrotation Xrotation
					JOINT LeftHand
					{
						OFFSET 8.56316 0.00000 0.00000
						CHANNELS 3 Xrotation Yrotation Zrotation
						JOINT LeftHandThumb1
						{
							OFFSET 0.00000 0.00000 0.00000
							CHANNELS 3 Xrotation Zrotation Yrotation
							End Site
							{
								OFFSET 0.00000 0.00000 3.93700
							}
						}
						End Site
						{
							OFFSET 3.93700 0.00000 0.00000
						}
					}
				}
			}
		}
		JOINT RightShoulder
		{
			OFFSET 0.00000 10.32977 0.00000
			CHANNELS 3 Xrotation Yrotation Zrotation
			JOINT RightArm
			{
				OFFSET -6.99601 0.00000 0.00000
				CHANNELS 3 Xrotation Yrotation Zrotation
				JOINT RightForeArm
				{
					OFFSET -10.20930 0.00000 0.00000
					CHANNELS 3 Yrotation Zrotation Xrotation
					JOINT RightHand
					{
						OFFSET -8.56316 0.00000 0.00000
						CHANNELS 3 Xrotation Yrotation Zrotation
						JOINT RightHandThumb1
						{
							OFFSET 0.00000 0.00000 0.00000
							CHANNELS 3 Xrotation Zrotation Yrotation
							End Site
							{
								OFFSET 0.00000 0.00000 3.93700
							}
						}
						End Site
						{
							OFFSET -3.93700 0.00000 0.00000
						}
					}
				}
			}
		}
	}
	JOINT LeftUpLeg
	{
		OFFSET 3.35136 0.00000 0.00000
		CHANNELS 3 Xrotation Yrotation Zrotation
		JOINT LeftLeg
		{
			OFFSET 0.00000 -16.34683 0.00000
			CHANNELS 3 Xrotation Yrotation Zrotation
			JOINT LeftFoot
			{
				OFFSET 0.00000 -13.95979 0.00000
				CHANNELS 3 Xrotation Yrotation Zrotation
				JOINT LeftToeBase
				{
					OFFSET 0.00000 -1.33694 4.98954
					CHANNELS 3 Xrotation Yrotation Zrotation
					End Site
					{
						OFFSET 0.00000 0.00000 2.95275
					}
				}
			}
		}
	}
	JOINT RightUpLeg
	{
		OFFSET -3.35136 0.00000 0.00000
		CHANNELS 3 Xrotation Yrotation Zrotation
		JOINT RightLeg
		{
			OFFSET 0.00000 -16.34683 0.00000
			CHANNELS 3 Xrotation Yrotation Zrotation
			JOINT RightFoot
			{
				OFFSET 0.00000 -13.95979 0.00000
				CHANNELS 3 Xrotation Yrotation Zrotation
				JOINT RightToeBase
				{
					OFFSET 0.00000 -1.33694 4.98954
					CHANNELS 3 Xrotation Yrotation Zrotation
					End Site
					{
						OFFSET 0.00000 0.00000 2.95275
					}
				}
			}
		}
	}
}
MOTION
Frames:	13
Frame Time: 0.008333
6.0299 31.7479 -5.2075 4.2032 -5.4054 -2.2704 -4.0647 5.8560 4.0853 5.0385 -19.9986 -0.8292 -9.5157 9.9205 32.6889 -16.6697 -6.8740 -36.8622 -6.1087 -0.0000 23.6201 4.2653 14.0999 -17.0220 32.8623 0.0000 24.3270 6.9293 -21.8288 -21.5373 -41.8677 -6.5765 30.9531 14.9301 0.0000 -30.6251 -2.6514 -9.3013 -15.9880 33.1476 -0.0000 -26.2537 1.8294 5.8806 1.1227 -2.8228 0.0000 -0.0000 -15.0692 17.6594 0.9977 6.2800 -0.0000 -0.0000 -0.3794 2.9949 2.8223 1.8742 -0.0000 -0.0000 -14.6426 -27.2503 5.5378 9.7934 -0.0000 -0.0000
6.0329 31.7483 -5.2112 4.1970 -5.3912 -2.2708 -4.0810 5.8339 4.0965 5.1115 -18.9680 -0.8231 -9.4933 9.9000 32.6776 -16.6435 -6.8599 -36.8695 -6.1246 0.0000 23.6061 4.2603 14.0436 -17.0659 32.8623 0.0000 24.3270 6.9859 -21.8441 -21.5480 -41.7945 -6.5412 30.9329 14.9098 0.0000 -30.6975 -2.6487 -9.3047 -15.9670 33.1476 -0.0000 -26.2537 1.8267 5.8864 1.1183 -2.8211 0.0000 -0.0000 -15.0683 17.6414 0.9943 6.3237 -0.0000 -0.0000 -0.3852 2.9903 2.8180 1.8918 -0.0000 -0.0000 -14.6452 -27.2642 5.5513 9.7909 -0.0000 -0.0000
6.0374 31.7489 -5.2149 4.1905 -5.3730 -2.2625 -4.0936 5.8210 4.0946 5.2021 -17.9732 -0.8021 -9.4274 9.9083 32.6550 -16.7035 -6.8433 -36.8801 -6.1294 0.0000 23.6159 4.2783 14.0606 -17.1148 32.8623 0.0000 24.3270 7.0509 -21.8669 -21.5437 -41.8959 -6.6271 30.9118 14.9138 0.0000 -30.6209 -2.6714 -9.3595 -16.0082 33.1476 -0.0000 -26.2537 1.8299 5.8589 1.1011 -2.8275 0.0000 -0.0000 -15.0531 17.6500 0.9925 6.3186 -0.0000 -0.0000 -0.3897 3.0122 2.7964 1.8981 -0.0000 -0.0000 -14.6463 -27.2572 5.4908 9.7591 -0.0000 -0.0000
6.0398 31.7493 -5.2184 4.1811 -5.3513 -2.2670 -4.1032 5.8118 4.0948 5.2859 -16.9967 -0.7808 -9.4213 9.8742 32.6448 -16.6495 -6.8647 -36.8748 -6.1307 0.0000 23.6394 4.2849 14.1419 -17.0489 32.8623 0.0000 24.3270 7.1228 -21.8993 -21.5267 -41.8565 -6.6323 30.8881 14.9259 0.0000 -30.6775 -2.6586 -9.3468 -15.9557 33.1476 -0.0000 -26.2537 1.8295 5.8590 1.1012 -2.8272 0.0000 -0.0000 -15.0379 17.6297 0.9920 6.2618 -0.0000 -0.0000 -0.3916 3.0048 2.7970 1.9127 -0.0000 -0.0000 -14.6434 -27.2633 5.4781 9.7457 -0.0000 -0.0000
6.0418 31.7499 -5.2230 4.1660 -5.3269 -2.2623 -4.1036 5.8043 4.0851 5.3902 -16.1165 -0.7305 -9.3743 9.8507 32.6407 -16.6561 -6.8453 -36.8970 -6.1681 -0.0000 23.6818 4.2948 14.2000 -17.0217 32.8623 0.0000 24.3270 7.1832 -21.9071 -21.5163 -41.7760 -6.6545 30.8508 14.9474 0.0000 -30.7610 -2.6216 -9.2724 -15.8634 33.1476 -0.0000 -26.2537 1.8337 5.8386 1.0938 -2.8256 0.0000 -0.0000 -15.0188 17.6236 0.9959 6.2639 -0.0000 -0.0000 -0.3960 2.9791 2.7967 1.9481 -0.0000 -0.0000 -14.6640 -27.3184 5.5259 9.7800 -0.0000 -0.0000
6.0463 31.7500 -5.2263 4.1582 -5.3084 -2.2635 -4.1202 5.7926 4.0943 5.4854 -15.2187 -0.6978 -9.3403 9.8364 32.6251 -16.6501 -6.8498 -36.9113 -6.1692 0.0000 23.7147 4.2864 14.2026 -16.9875 32.8623 0.0000 24.3270 7.2086 -21.9100 -21.5244 -41.7925 -6.7164 30.8295 14.9658 0.0000 -30.7240 -2.6642 -9.3534 -15.9772 33.1476 -0.0000 -26.2537 1.8344 5.8238 1.0856 -2.8280 0.0000 -0.0000 -15.0145 17.6204 1.0172 6.2370 -0.0000 -0.0000 -0.4033 2.9791 2.7849 1.9711 -0.0000 -0.0000 -14.6827 -27.2818 5.4770 9.8531 -0.0000 -0.0000
6.0482 31.7502 -5.2299 4.1451 -5.2835 -2.2702 -4.1247 5.7741 4.0986 5.5832 -14.4248 -0.6612 -9.3382 9.8171 32.6222 -16.6466 -6.8339 -36.9336 -6.1951 -0.0000 23.7463 4.2935 14.2142 -17.0012 32.8623 0.0000 24.3270 7.2522 -21.9113 -21.5196 -41.8664 -6.8231 30.8098 14.9929 0.0000 -30.6771 -2.6945 -9.3666 -16.1283 33.1476 -0.0000 -26.2537 1.8311 5.8278 1.0876 -2.8166 0.0000 -0.0000 -15.0249 17.5997 1.0034 6.3254 -0.0000 -0.0000 -0.4059 2.9452 2.7930 1.9996 -0.0000 -0.0000 -14.6918 -27.3265 5.5641 9.8620 -0.0000 -0.0000
6.0501 31.7506 -5.2347 4.1223 -5.2667 -2.2743 -4.1201 5.7692 4.0991 5.6849 -13.6679 -0.6125 -9.2912 9.7919 32.6094 -16.6689 -6.7976 -36.9463 -6.1971 0.0000 23.7622 4.2677 14.1648 -16.9588 32.8623 0.0000 24.3270 7.2406 -21.8722 -21.5377 -41.8549 -6.9636 30.7767 15.0460 0.0000 -30.6320 -2.6721 -9.2841 -16.1347 33.1476 -0.0000 -26.2537 1.8338 5.8340 1.0860 -2.7956 0.0000 -0.0000 -15.0180 17.5804 1.0059 6.3913 -0.0000 -0.0000 -0.4178 2.9754 2.7890 2.0502 -0.0000 -0.0000 -14.6967 -27.3297 5.4724 9.7456 -0.0000 -0.0000
6.0565 31.7507 -5.2414 4.1195 -5.2368 -2.2670 -4.1289 5.7426 4.1029 5.7766 -12.9560 -0.6159 -9.2803 9.7694 32.6111 -16.6674 -6.7399 -36.9863 -6.2395 -0.0000 23.7587 4.2628 14.1308 -16.9780 32.8623 0.0000 24.3270 7.2385 -21.8296 -21.5416 -41.9148 -7.1095 30.7211 15.1108 -0.0000 -30.5366 -2.6923 -9.3347 -16.1673 33.1476 -0.0000 -26.2537 1.8166 5.7968 1.0676 -2.7844 0.0000 -0.0000 -15.0274 17.5935 1.0481 6.3434 -0.0000 -0.0000 -0.4504 2.9660 2.7755 2.1121 -0.0000 -0.0000 -14.7279 -27.3868 5.5632 9.7794 -0.0000 -0.0000
6.0605 31.7505 -5.2461 4.1130 -5.2257 -2.2648 -4.1419 5.7300 4.1060 5.8873 -12.2814 -0.6169 -9.2585 9.7561 32.5998 -16.5746 -6.7753 -36.9899 -6.2682 -0.0000 23.6226 4.2738 14.0832 -17.0727 32.8623 0.0000 24.3270 7.1955 -21.7667 -21.5491 -41.9415 -7.2562 30.6622 15.1811 -0.0000 -30.4406 -2.7073 -9.3227 -16.2722 33.1476 -0.0000 -26.2537 1.8033 5.7924 1.0578 -2.7610 0.0000 -0.0000 -15.0314 17.5872 1.0577 6.2761 -0.0000 -0.0000 -0.4728 2.9548 2.7608 2.1553 -0.0000 -0.0000 -14.7445 -27.3376 5.5052 9.7761 -0.0000 -0.0000
6.0625 31.7508 -5.2502 4.0881 -5.2107 -2.2645 -4.1331 5.7316 4.1071 5.9849 -11.6682 -0.6068 -9.2598 9.7137 32.5711 -16.5428 -6.7788 -36.9900 -6.2328 0.0000 23.6388 4.2523 14.0713 -17.0048 32.8623 0.0000 24.3270 7.2126 -21.7780 -21.5360 -42.1176 -7.4364 30.6479 15.2873 -0.0000 -30.2129 -2.7486 -9.3973 -16.3850 33.1476 -0.0000 -26.2537 1.8098 5.7949 1.0522 -2.7396 0.0000 -0.0000 -15.0360 17.5823 1.0662 6.2148 -0.0000 -0.0000 -0.4736 2.9352 2.7622 2.2039 -0.0000 -0.0000 -14.7668 -27.3781 5.5656 9.7865 -0.0000 -0.0000
6.0640 31.7508 -5.2534 4.0654 -5.2059 -2.2739 -4.1333 5.7365 4.1107 6.0954 -11.0771 -0.5768 -9.2428 9.6843 32.5729 -16.5214 -6.7608 -37.0142 -6.2392 0.0000 23.6648 4.2683 14.1383 -16.9905 32.8623 0.0000 24.3270 7.2183 -21.7618 -21.4972 -42.1552 -7.5259 30.5952 15.3834 -0.0000 -30.1748 -2.7892 -9.4217 -16.5739 33.1476 -0.0000 -26.2537 1.8192 5.8135 1.0573 -2.7289 0.0000 -0.0000 -15.0416 17.5605 1.0516 6.2659 -0.0000 -0.0000 -0.4730 2.9372 2.7689 2.2377 -0.0000 -0.0000 -14.7748 -27.3901 5.5746 9.7718 -0.0000 -0.0000
6.0620 31.7506 -5.2513 3.9938 -5.1976 -2.3000 -4.0912 5.7446 4.1199 6.2113 -10.5578 -0.5381 -9.2222 9.6664 32.5843 -16.5238 -6.7602 -37.0529 -6.2269 0.0000 23.6055 4.2969 14.1272 -17.1103 32.8623 0.0000 24.3270 7.2427 -21.7582 -21.4737 -42.1921 -7.6218 30.5694 15.4496 0.0000 -30.0751 -2.8141 -9.4820 -16.6139 33.1476 -0.0000 -26.2537 1.8884 5.8666 1.0817 -2.7256 0.0000 -0.0000 -15.0500 17.5034 1.0139 6.2558 -0.0000 -0.0000 -0.3990 2.9444 2.7940 2.2376 -0.0000 -0.0000 -14.7815 -27.4132 5.5622 9.7850 -0.0000 -0.0000
